<svg width="1395" height="312" viewBox="0 0 1395 312" fill="none" xmlns="http://www.w3.org/2000/svg">
<path d="M193.536 109.76C204.459 109.76 214.101 111.893 222.464 116.16C230.997 120.427 237.653 126.997 242.432 135.872C247.211 144.576 249.6 155.84 249.6 169.664V248H217.6V173.76C217.6 161.643 214.955 152.597 209.664 146.624C204.373 140.651 196.779 137.664 186.88 137.664C179.883 137.664 173.653 139.2 168.192 142.272C162.901 145.344 158.72 149.867 155.648 155.84C152.747 161.813 151.296 169.408 151.296 178.624V248H119.296V173.76C119.296 161.643 116.651 152.597 111.36 146.624C106.069 140.651 98.4747 137.664 88.576 137.664C81.5787 137.664 75.3493 139.2 69.888 142.272C64.5973 145.344 60.416 149.867 57.344 155.84C54.4427 161.813 52.992 169.408 52.992 178.624V248H20.992V111.296H51.456V147.648L46.08 136.896C50.688 128.021 57.344 121.28 66.048 116.672C74.9227 112.064 84.992 109.76 96.256 109.76C109.056 109.76 120.149 112.917 129.536 119.232C139.093 125.547 145.408 135.104 148.48 147.904L135.936 143.552C140.373 133.312 147.712 125.12 157.952 118.976C168.192 112.832 180.053 109.76 193.536 109.76ZM374.716 248V220.352L372.924 214.464V166.08C372.924 156.693 370.108 149.44 364.476 144.32C358.844 139.029 350.311 136.384 338.876 136.384C331.196 136.384 323.601 137.579 316.092 139.968C308.753 142.357 302.524 145.685 297.404 149.952L284.86 126.656C292.199 121.024 300.903 116.843 310.972 114.112C321.212 111.211 331.793 109.76 342.716 109.76C362.513 109.76 377.788 114.539 388.54 124.096C399.463 133.483 404.924 148.075 404.924 167.872V248H374.716ZM331.708 249.792C321.468 249.792 312.508 248.085 304.828 244.672C297.148 241.088 291.175 236.224 286.908 230.08C282.812 223.765 280.764 216.683 280.764 208.832C280.764 201.152 282.556 194.24 286.14 188.096C289.895 181.952 295.953 177.088 304.316 173.504C312.679 169.92 323.772 168.128 337.596 168.128H377.276V189.376H339.9C328.977 189.376 321.639 191.168 317.884 194.752C314.129 198.165 312.252 202.432 312.252 207.552C312.252 213.355 314.556 217.963 319.164 221.376C323.772 224.789 330.172 226.496 338.364 226.496C346.215 226.496 353.212 224.704 359.356 221.12C365.671 217.536 370.193 212.245 372.924 205.248L378.3 224.448C375.228 232.469 369.681 238.699 361.66 243.136C353.809 247.573 343.825 249.792 331.708 249.792ZM445.992 248V111.296H476.456V148.928L472.872 137.92C476.968 128.704 483.368 121.707 492.072 116.928C500.947 112.149 511.955 109.76 525.096 109.76V140.224C523.731 139.883 522.451 139.712 521.256 139.712C520.061 139.541 518.867 139.456 517.672 139.456C505.555 139.456 495.912 143.04 488.744 150.208C481.576 157.205 477.992 167.701 477.992 181.696V248H445.992ZM613.712 249.792C599.376 249.792 586.576 246.805 575.312 240.832C564.219 234.688 555.515 226.325 549.2 215.744C542.885 205.163 539.728 193.131 539.728 179.648C539.728 165.995 542.885 153.963 549.2 143.552C555.515 132.971 564.219 124.693 575.312 118.72C586.576 112.747 599.376 109.76 613.712 109.76C627.024 109.76 638.715 112.491 648.784 117.952C659.024 123.243 666.789 131.093 672.08 141.504L647.504 155.84C643.408 149.355 638.373 144.576 632.4 141.504C626.597 138.432 620.283 136.896 613.456 136.896C605.605 136.896 598.523 138.603 592.208 142.016C585.893 145.429 580.944 150.379 577.36 156.864C573.776 163.179 571.984 170.773 571.984 179.648C571.984 188.523 573.776 196.203 577.36 202.688C580.944 209.003 585.893 213.867 592.208 217.28C598.523 220.693 605.605 222.4 613.456 222.4C620.283 222.4 626.597 220.864 632.4 217.792C638.373 214.72 643.408 209.941 647.504 203.456L672.08 217.792C666.789 228.032 659.024 235.968 648.784 241.6C638.715 247.061 627.024 249.792 613.712 249.792ZM757.598 249.792C745.993 249.792 735.753 247.659 726.878 243.392C718.003 238.955 711.091 232.299 706.142 223.424C701.193 214.379 698.718 203.029 698.718 189.376V111.296H730.718V185.024C730.718 197.312 733.449 206.528 738.91 212.672C744.542 218.645 752.478 221.632 762.718 221.632C770.227 221.632 776.713 220.096 782.174 217.024C787.806 213.952 792.158 209.344 795.23 203.2C798.473 197.056 800.094 189.461 800.094 180.416V111.296H832.094V248H801.63V211.136L807.006 222.4C802.398 231.275 795.657 238.101 786.782 242.88C777.907 247.488 768.179 249.792 757.598 249.792ZM916.232 249.792C904.797 249.792 893.789 248.341 883.208 245.44C872.797 242.368 864.52 238.699 858.376 234.432L870.664 210.112C876.808 214.037 884.147 217.28 892.68 219.84C901.213 222.4 909.747 223.68 918.28 223.68C928.349 223.68 935.603 222.315 940.04 219.584C944.648 216.853 946.952 213.184 946.952 208.576C946.952 204.821 945.416 202.005 942.344 200.128C939.272 198.08 935.261 196.544 930.312 195.52C925.363 194.496 919.816 193.557 913.672 192.704C907.699 191.851 901.64 190.741 895.496 189.376C889.523 187.84 884.061 185.707 879.112 182.976C874.163 180.075 870.152 176.235 867.08 171.456C864.008 166.677 862.472 160.363 862.472 152.512C862.472 143.808 864.947 136.299 869.896 129.984C874.845 123.499 881.757 118.549 890.632 115.136C899.677 111.552 910.344 109.76 922.632 109.76C931.848 109.76 941.149 110.784 950.536 112.832C959.923 114.88 967.688 117.781 973.832 121.536L961.544 145.856C955.059 141.931 948.488 139.285 941.832 137.92C935.347 136.384 928.861 135.616 922.376 135.616C912.648 135.616 905.395 137.067 900.616 139.968C896.008 142.869 893.704 146.539 893.704 150.976C893.704 155.072 895.24 158.144 898.312 160.192C901.384 162.24 905.395 163.861 910.344 165.056C915.293 166.251 920.755 167.275 926.728 168.128C932.872 168.811 938.931 169.92 944.904 171.456C950.877 172.992 956.339 175.125 961.288 177.856C966.408 180.416 970.504 184.085 973.576 188.864C976.648 193.643 978.184 199.872 978.184 207.552C978.184 216.085 975.624 223.509 970.504 229.824C965.555 236.139 958.472 241.088 949.256 244.672C940.04 248.085 929.032 249.792 916.232 249.792Z" fill="url(#paint0_linear_207_9)"/>
<path d="M1028.62 124.896C1025.71 124.896 1023.24 123.915 1021.19 121.952C1019.14 119.904 1018.12 117.344 1018.12 114.272C1018.12 111.029 1019.14 108.469 1021.19 106.592C1023.24 104.629 1025.71 103.648 1028.62 103.648C1031.52 103.648 1033.99 104.629 1036.04 106.592C1038.09 108.469 1039.11 111.029 1039.11 114.272C1039.11 117.344 1038.09 119.904 1036.04 121.952C1033.99 123.915 1031.52 124.896 1028.62 124.896ZM1059.87 124.896C1056.96 124.896 1054.49 123.915 1052.44 121.952C1050.39 119.904 1049.37 117.344 1049.37 114.272C1049.37 111.029 1050.39 108.469 1052.44 106.592C1054.49 104.629 1056.96 103.648 1059.87 103.648C1062.77 103.648 1065.24 104.629 1067.29 106.592C1069.34 108.469 1070.36 111.029 1070.36 114.272C1070.36 117.344 1069.34 119.904 1067.29 121.952C1065.24 123.915 1062.77 124.896 1059.87 124.896ZM1083.78 136.8L1126.03 16.224H1140.36L1098.12 136.8H1083.78ZM1166.17 124.896C1159.6 124.896 1153.67 123.445 1148.38 120.544C1143.18 117.557 1139.08 113.461 1136.09 108.256C1133.11 103.051 1131.61 96.9067 1131.61 89.824C1131.61 82.7413 1133.11 76.5973 1136.09 71.392C1139.08 66.1867 1143.18 62.1333 1148.38 59.232C1153.67 56.3307 1159.6 54.88 1166.17 54.88C1171.89 54.88 1177.01 56.16 1181.53 58.72C1186.06 61.1947 1189.64 64.992 1192.29 70.112C1194.93 75.232 1196.25 81.8027 1196.25 89.824C1196.25 97.76 1194.97 104.331 1192.41 109.536C1189.85 114.656 1186.31 118.496 1181.79 121.056C1177.27 123.616 1172.06 124.896 1166.17 124.896ZM1168.09 111.2C1171.93 111.2 1175.35 110.347 1178.33 108.64C1181.41 106.933 1183.84 104.459 1185.63 101.216C1187.51 97.9733 1188.45 94.176 1188.45 89.824C1188.45 85.3867 1187.51 81.5893 1185.63 78.432C1183.84 75.1893 1181.41 72.7147 1178.33 71.008C1175.35 69.3013 1171.93 68.448 1168.09 68.448C1164.25 68.448 1160.8 69.3013 1157.73 71.008C1154.74 72.7147 1152.31 75.1893 1150.43 78.432C1148.64 81.5893 1147.74 85.3867 1147.74 89.824C1147.74 94.176 1148.64 97.9733 1150.43 101.216C1152.31 104.459 1154.74 106.933 1157.73 108.64C1160.8 110.347 1164.25 111.2 1168.09 111.2ZM1188.83 124V107.872L1189.47 89.696L1188.19 71.52V29.024H1204.06V124H1188.83ZM1257.25 124.896C1249.65 124.896 1243 123.403 1237.28 120.416C1231.65 117.344 1227.25 113.163 1224.1 107.872C1221.03 102.581 1219.49 96.5653 1219.49 89.824C1219.49 82.9973 1220.98 76.9813 1223.97 71.776C1227.04 66.4853 1231.22 62.3467 1236.51 59.36C1241.89 56.3733 1247.99 54.88 1254.82 54.88C1261.47 54.88 1267.4 56.3307 1272.61 59.232C1277.81 62.1333 1281.91 66.2293 1284.9 71.52C1287.88 76.8107 1289.38 83.04 1289.38 90.208C1289.38 90.8907 1289.33 91.6587 1289.25 92.512C1289.25 93.3653 1289.21 94.176 1289.12 94.944H1232.16V84.32H1280.67L1274.4 87.648C1274.49 83.7227 1273.68 80.2667 1271.97 77.28C1270.26 74.2933 1267.92 71.9467 1264.93 70.24C1262.03 68.5333 1258.66 67.68 1254.82 67.68C1250.89 67.68 1247.44 68.5333 1244.45 70.24C1241.55 71.9467 1239.24 74.336 1237.54 77.408C1235.92 80.3947 1235.11 83.936 1235.11 88.032V90.592C1235.11 94.688 1236.04 98.3147 1237.92 101.472C1239.8 104.629 1242.44 107.061 1245.86 108.768C1249.27 110.475 1253.2 111.328 1257.63 111.328C1261.47 111.328 1264.93 110.731 1268 109.536C1271.07 108.341 1273.8 106.464 1276.19 103.904L1284.77 113.76C1281.7 117.344 1277.81 120.117 1273.12 122.08C1268.51 123.957 1263.22 124.896 1257.25 124.896ZM1321.67 124L1292.36 55.648H1309L1334.22 115.936H1326.02L1352.14 55.648H1367.5L1338.18 124H1321.67Z" fill="url(#paint1_linear_207_9)"/>
<defs>
<linearGradient id="paint0_linear_207_9" x1="299.018" y1="-188.71" x2="943.756" y2="409.072" gradientUnits="userSpaceOnUse">
<stop stop-color="#FB923C"/>
<stop offset="0.68" stop-color="#303C66"/>
<stop offset="0.86" stop-color="#33408E"/>
<stop offset="1" stop-color="#0D1774"/>
</linearGradient>
<linearGradient id="paint1_linear_207_9" x1="1128.96" y1="-94.3549" x2="1435.45" y2="126.051" gradientUnits="userSpaceOnUse">
<stop stop-color="#FB923C"/>
<stop offset="0.68" stop-color="#303C66"/>
<stop offset="0.86" stop-color="#33408E"/>
<stop offset="1" stop-color="#0D1774"/>
</linearGradient>
</defs>
</svg>
