<?xml version="1.0" standalone="no"?>
<!DOCTYPE svg PUBLIC "-//W3C//DTD SVG 20010904//EN"
 "http://www.w3.org/TR/2001/REC-SVG-20010904/DTD/svg10.dtd">
<svg version="1.0" xmlns="http://www.w3.org/2000/svg"
 width="2790.000000pt" height="2790.000000pt" viewBox="0 0 2790.000000 2790.000000"
 preserveAspectRatio="xMidYMid meet">
<metadata>
Created by potrace 1.14, written by Peter Selinger 2001-2017
</metadata>
<g transform="translate(0.000000,2790.000000) scale(0.100000,-0.100000)"
fill="#000000" stroke="none">
<path d="M22513 16721 c-3 -14 -12 -36 -19 -50 -8 -14 -14 -33 -14 -42 0 -9
-3 -19 -7 -23 -4 -3 -8 -12 -10 -19 -1 -7 -11 -37 -22 -67 -10 -30 -51 -147
-90 -260 -39 -113 -75 -214 -80 -225 -5 -11 -19 -51 -32 -90 -12 -38 -26 -76
-32 -82 -5 -7 -7 -13 -3 -13 3 0 -1 -17 -10 -37 -8 -21 -17 -45 -20 -53 -2 -8
-12 -40 -23 -70 -18 -50 -68 -193 -121 -345 -11 -33 -24 -67 -27 -75 -3 -8 -7
-19 -9 -25 -5 -19 -64 -189 -88 -255 -14 -36 -45 -126 -71 -200 -25 -74 -50
-144 -55 -155 -7 -17 -24 -68 -37 -110 -12 -41 -59 -172 -65 -181 -6 -8 33
-11 140 -10 l147 1 33 95 c18 52 36 107 39 123 3 15 10 27 16 27 6 0 8 3 5 6
-4 3 10 49 29 102 19 53 36 102 37 107 2 6 6 17 9 25 12 30 199 565 201 575 1
6 4 15 8 20 3 6 10 26 16 45 6 19 27 80 47 135 20 55 38 107 40 115 2 8 24 74
50 145 68 190 126 357 132 380 3 11 9 25 14 30 4 6 10 22 13 35 3 14 25 81 49
150 48 136 49 137 82 228 13 34 20 63 17 63 -4 1 -69 2 -145 3 l-138 2 -6 -25z"/>
<path d="M23767 16483 c-2 -5 -3 -160 -3 -346 1 -185 -1 -337 -3 -337 -2 0
-24 17 -50 38 -25 21 -57 45 -71 54 -34 21 -157 65 -206 73 -47 7 -193 8 -226
0 -13 -2 -36 -7 -53 -10 -44 -9 -45 -9 -100 -30 -180 -69 -330 -226 -385 -404
-28 -88 -32 -118 -33 -231 -2 -167 18 -260 82 -377 118 -220 354 -346 629
-338 148 5 276 49 357 123 17 15 40 35 52 46 l22 18 -3 -73 c-2 -41 -1 -80 2
-86 3 -10 43 -13 153 -13 148 0 149 0 150 23 4 127 0 467 -5 475 -4 7 -4 12 1
12 7 0 9 54 3 70 -1 3 -1 10 0 15 6 26 2 854 -4 864 -4 6 -4 11 1 11 7 0 9 54
3 70 -1 3 -1 10 0 15 2 9 3 299 1 333 -1 9 -39 12 -155 12 -85 0 -157 -3 -159
-7z m-272 -800 c11 -6 40 -21 65 -33 50 -25 130 -97 130 -117 0 -7 4 -13 9
-13 10 0 46 -87 59 -145 25 -103 7 -232 -45 -326 -32 -60 -74 -103 -138 -144
-45 -29 -66 -37 -130 -51 -24 -6 -144 -6 -165 -1 -59 15 -80 22 -114 39 -47
24 -136 105 -136 124 0 8 -4 14 -9 14 -7 0 -42 75 -47 100 0 3 -4 23 -9 45 -4
21 -9 62 -10 90 -1 45 3 72 21 155 11 51 51 116 102 167 83 83 167 112 307
109 50 -1 99 -7 110 -13z"/>
<path d="M24925 15955 c-88 -20 -159 -50 -234 -100 -83 -55 -96 -67 -152 -135
-103 -127 -148 -268 -144 -455 1 -66 5 -131 9 -145 3 -14 8 -35 10 -46 13 -64
90 -207 141 -262 14 -15 25 -30 25 -34 0 -5 7 -8 15 -8 8 0 15 -4 15 -8 0 -9
94 -81 118 -89 9 -3 24 -12 32 -18 21 -18 163 -61 230 -71 100 -14 264 -10
365 10 47 9 143 48 192 78 100 61 174 138 131 138 -6 0 -9 2 -6 5 3 3 -6 18
-21 33 -14 15 -49 54 -78 87 l-52 59 -24 -26 c-85 -92 -294 -147 -441 -116
-23 5 -54 11 -69 14 -31 6 -130 61 -135 75 -2 5 -8 9 -13 9 -19 0 -61 56 -95
126 -19 39 -34 76 -34 83 0 7 32 11 103 11 56 1 298 2 537 3 l435 2 -1 110
c-3 213 -67 371 -203 503 -74 71 -199 143 -276 158 -11 2 -31 7 -45 10 -52 14
-275 13 -335 -1z m298 -258 c128 -40 220 -140 255 -278 l9 -35 -388 0 c-446 0
-408 -11 -363 101 72 181 287 274 487 212z"/>
<path d="M25850 15954 c0 -3 32 -79 56 -132 13 -29 24 -55 24 -57 0 -5 19 -48
67 -155 14 -30 26 -59 27 -65 2 -5 9 -26 18 -45 8 -19 43 -100 78 -180 34 -80
68 -158 75 -175 8 -16 48 -111 90 -210 42 -99 83 -193 90 -210 7 -16 23 -54
36 -82 l23 -53 167 0 c164 0 167 0 174 23 4 12 8 24 9 27 2 3 7 16 13 30 6 14
28 63 48 110 53 121 58 134 59 140 1 3 4 10 7 15 15 25 133 311 131 318 -1 4
3 7 8 7 6 0 10 7 10 15 0 8 4 23 9 33 24 44 54 116 54 129 0 7 3 13 6 13 3 0
12 15 19 33 28 68 35 83 47 107 7 14 13 27 13 30 1 8 20 56 43 108 19 42 28
64 60 137 4 11 15 36 23 56 l14 37 -154 -1 -153 -1 -17 -41 c-10 -22 -18 -42
-19 -45 0 -3 -8 -21 -17 -40 -9 -19 -28 -63 -42 -97 -15 -35 -37 -86 -50 -115
-13 -29 -52 -118 -86 -198 -34 -80 -72 -167 -85 -195 -12 -27 -44 -101 -71
-163 -26 -62 -51 -109 -54 -105 -4 5 -13 24 -20 43 -7 19 -22 55 -33 80 -11
25 -24 54 -28 65 -9 27 -38 93 -55 129 -8 16 -14 33 -14 37 0 5 -11 32 -24 61
-13 29 -47 109 -75 178 -28 69 -57 139 -65 155 -7 17 -26 59 -41 95 -15 36
-33 79 -40 95 -7 17 -15 37 -17 45 -4 13 -32 15 -171 16 -92 0 -167 0 -167 -2z"/>
<path d="M20510 14989 c-47 -14 -106 -63 -126 -105 -9 -18 -18 -59 -19 -90 -8
-143 115 -247 254 -215 117 26 181 132 157 261 -21 109 -151 182 -266 149z"/>
<path d="M21118 14981 c-85 -37 -128 -104 -128 -200 0 -123 93 -212 216 -206
65 3 117 28 153 74 36 47 49 85 46 141 -4 66 -11 90 -43 129 -54 68 -165 96
-244 62z"/>
<path d="M1868 14874 c-2 -1 -37 -4 -78 -7 -83 -6 -165 -19 -231 -38 -63 -18
-61 -17 -159 -57 -120 -48 -235 -127 -322 -220 l-48 -51 0 172 0 172 -303 0
-302 0 -3 -1367 -2 -1368 320 0 320 0 0 703 c1 665 3 822 14 892 31 193 90
313 212 431 88 86 210 146 344 170 68 12 226 10 290 -3 73 -15 180 -54 180
-65 0 -5 7 -8 15 -8 21 0 149 -129 166 -167 8 -18 17 -33 21 -33 5 0 7 -3 6
-7 -1 -5 5 -24 14 -44 23 -52 33 -88 43 -160 3 -15 8 -44 13 -65 4 -22 8 -400
7 -841 l0 -803 320 0 320 0 1 733 c1 766 2 803 29 932 39 187 148 352 285 433
25 14 47 30 48 34 2 4 14 8 26 8 12 0 30 6 41 13 27 18 97 38 159 45 110 13
286 3 326 -18 11 -6 20 -8 20 -4 0 3 7 1 15 -6 8 -7 15 -10 15 -6 0 7 76 -34
125 -67 106 -72 198 -239 220 -397 4 -30 9 -64 11 -75 3 -11 5 -381 5 -822 l1
-803 319 0 c175 0 319 3 319 8 7 112 -3 1767 -10 1767 0 0 -3 26 -5 58 -2 32
-7 62 -10 67 -3 5 -8 28 -11 52 -4 24 -10 51 -15 61 -6 9 -8 17 -5 17 6 0 -49
141 -80 202 -113 225 -315 392 -569 471 -75 23 -93 28 -170 42 -94 18 -284 24
-400 12 -132 -14 -173 -22 -286 -57 -104 -33 -242 -96 -294 -135 -17 -14 -37
-25 -43 -25 -6 0 -12 -3 -14 -7 -1 -5 -26 -25 -53 -46 -28 -21 -79 -69 -114
-107 l-63 -68 -49 64 c-65 87 -119 137 -206 196 -82 55 -230 128 -260 128 -10
0 -23 4 -29 8 -5 5 -34 14 -64 21 -30 6 -66 14 -80 17 -56 12 -284 26 -292 18z"/>
<path d="M6768 14875 c-2 -2 -43 -6 -93 -9 -49 -3 -103 -8 -120 -10 -63 -8
-121 -17 -135 -21 -8 -2 -30 -7 -48 -10 -18 -3 -58 -12 -90 -21 -31 -8 -64
-17 -72 -19 -81 -21 -251 -85 -272 -102 -9 -8 -22 -15 -30 -17 -22 -3 -192
-108 -203 -125 -3 -5 13 -42 34 -83 127 -235 172 -320 191 -356 l16 -33 46 36
c26 19 51 35 57 35 5 0 11 4 13 8 5 13 181 99 219 107 19 4 39 11 44 15 14 11
150 43 230 55 113 17 296 22 317 9 7 -4 8 -2 4 4 -5 8 1 9 21 2 15 -5 49 -11
75 -14 59 -6 174 -46 235 -82 46 -26 174 -148 171 -162 -1 -4 11 -33 26 -64
15 -32 29 -70 32 -85 2 -16 7 -35 10 -43 3 -8 7 -52 10 -97 4 -75 3 -83 -13
-83 -10 -1 -216 -2 -458 -4 -442 -4 -493 -6 -601 -25 -33 -6 -75 -13 -94 -16
-102 -17 -283 -95 -385 -165 -43 -30 -155 -139 -155 -151 0 -4 -6 -14 -13 -21
-15 -14 -77 -143 -82 -168 -2 -8 -8 -33 -14 -55 -55 -206 -18 -455 93 -629 38
-59 168 -192 198 -201 10 -4 18 -10 18 -14 0 -21 237 -126 328 -146 12 -3 32
-7 45 -10 71 -17 177 -27 287 -29 386 -6 673 103 855 326 l30 36 0 -164 -1
-164 302 0 303 0 -3 898 c-2 493 -6 917 -10 942 -7 39 -14 77 -32 160 -20 95
-95 258 -157 340 -49 65 -148 164 -188 187 -16 10 -29 21 -29 25 0 4 -4 8 -9
8 -5 0 -39 18 -75 40 -36 22 -72 40 -79 40 -7 0 -17 4 -23 9 -24 23 -222 77
-349 96 -85 13 -369 28 -377 20z m684 -1594 c4 -1 7 -74 6 -163 -1 -177 -3
-186 -71 -287 -92 -136 -253 -234 -452 -277 -16 -3 -84 -7 -149 -9 -123 -2
-234 13 -293 40 -18 8 -49 22 -68 31 -19 9 -55 37 -80 62 -72 71 -103 155 -98
257 4 84 30 147 84 208 53 60 124 100 198 112 19 3 38 8 42 11 4 2 54 7 111
10 57 4 104 7 105 8 1 1 651 -2 665 -3z"/>
<path d="M10417 14874 c-1 -1 -40 -5 -87 -8 -75 -4 -108 -9 -210 -31 -213 -44
-422 -171 -548 -333 l-42 -54 0 195 c0 147 -3 196 -12 199 -7 2 -143 4 -303 3
l-290 0 -2 -40 c-5 -95 -4 -145 2 -154 3 -6 2 -11 -4 -11 -5 0 -8 -10 -5 -22
2 -13 4 -48 4 -78 -1 -88 0 -123 6 -132 3 -4 1 -8 -5 -8 -5 0 -8 -10 -5 -22 6
-30 7 -138 1 -144 -3 -3 -1 -21 3 -40 4 -18 4 -34 0 -34 -5 0 -7 -10 -4 -22 6
-32 7 -128 1 -134 -2 -3 -1 -21 3 -40 4 -19 5 -36 1 -39 -8 -4 -5 -70 4 -85 3
-5 1 -11 -3 -14 -5 -3 -6 -25 -3 -48 4 -24 4 -56 1 -73 -3 -16 -3 -47 1 -67 3
-21 3 -38 -2 -38 -4 0 -6 -10 -3 -22 6 -30 7 -138 1 -144 -3 -3 -1 -21 3 -40
4 -18 4 -34 0 -34 -5 0 -7 -10 -4 -22 2 -13 4 -48 4 -78 -1 -88 0 -123 6 -132
3 -4 1 -8 -5 -8 -5 0 -8 -10 -5 -22 6 -30 7 -138 1 -144 -3 -3 -1 -21 3 -40 4
-18 4 -34 0 -34 -5 0 -7 -10 -4 -22 2 -13 4 -48 4 -78 -1 -88 0 -123 6 -132 3
-4 2 -8 -3 -8 -4 0 -7 -46 -6 -102 2 -57 3 -119 3 -138 0 -19 0 -64 0 -100 1
-36 1 -69 1 -75 -2 -47 -3 -92 -2 -102 1 -10 72 -13 321 -13 l320 0 0 23 c0
12 0 40 -1 62 -1 22 -1 47 0 55 0 8 0 40 0 70 -1 30 -1 61 0 68 2 30 3 39 2
77 0 22 0 54 0 70 0 17 0 39 -1 50 0 17 -1 128 -1 175 1 8 1 44 0 80 0 36 0
72 0 80 1 8 1 44 0 80 0 36 0 72 1 80 1 76 0 140 -4 163 -2 15 1 30 6 33 4 3
6 9 3 14 -10 16 -2 317 9 350 3 8 7 31 10 50 19 125 94 276 184 368 91 92 205
157 342 194 82 22 340 34 373 17 20 -11 18 -40 19 334 1 142 -2 261 -6 265 -7
6 -73 11 -79 6z"/>
<path d="M12188 14875 c-2 -2 -45 -6 -97 -10 -52 -3 -97 -8 -100 -10 -3 -1
-24 -6 -46 -9 -22 -4 -67 -14 -100 -22 -33 -9 -67 -17 -75 -19 -112 -23 -381
-166 -490 -260 -37 -32 -138 -134 -181 -181 -37 -42 -132 -189 -167 -260 -56
-111 -112 -303 -128 -434 -8 -74 -9 -290 0 -365 45 -403 249 -746 582 -977 30
-21 58 -38 63 -38 5 0 11 -3 13 -7 6 -15 130 -75 226 -109 92 -34 195 -62 254
-69 15 -2 31 -6 35 -8 14 -9 183 -20 293 -21 102 0 229 9 280 19 14 3 39 8 55
10 217 39 444 153 613 310 53 49 171 199 203 260 17 30 15 55 -2 55 -6 0 -35
16 -65 35 -30 19 -56 35 -59 35 -2 0 -43 24 -92 53 -48 30 -108 64 -133 78
-25 13 -47 26 -50 29 -3 3 -19 13 -36 22 l-32 18 -41 -55 c-44 -59 -106 -122
-162 -167 -57 -46 -210 -119 -279 -132 -14 -3 -36 -8 -50 -11 -42 -10 -201
-12 -270 -4 -354 45 -599 259 -682 597 -24 97 -33 350 -16 426 5 23 11 49 14
60 28 141 107 287 210 390 113 112 269 189 444 216 72 11 241 9 305 -4 50 -10
70 -14 73 -16 1 -2 5 -3 10 -4 136 -31 288 -138 395 -278 43 -57 54 -65 67
-55 8 7 24 17 35 23 11 6 81 46 155 89 74 43 146 85 160 92 86 48 115 71 112
89 -2 10 -8 21 -13 22 -5 2 -9 8 -9 13 0 15 -50 90 -104 154 -72 86 -130 139
-209 194 -49 33 -208 117 -262 137 -16 7 -39 15 -50 19 -11 5 -25 9 -32 11 -6
1 -27 7 -45 13 -18 6 -45 13 -60 16 -16 3 -38 7 -50 9 -63 13 -98 18 -148 22
-69 5 -259 12 -262 9z"/>
<path d="M18337 14874 c-1 -1 -36 -5 -77 -8 -78 -6 -121 -12 -180 -23 -19 -4
-42 -8 -50 -9 -31 -5 -160 -44 -212 -65 -304 -120 -488 -315 -553 -588 -13
-54 -13 -283 0 -347 40 -203 204 -385 430 -477 63 -26 95 -39 108 -42 4 -2 8
-3 10 -5 4 -3 179 -46 227 -55 74 -14 194 -34 250 -41 38 -5 189 -31 230 -39
14 -3 39 -7 55 -10 103 -15 251 -73 298 -118 46 -42 66 -94 63 -161 -9 -160
-143 -253 -406 -282 -73 -8 -237 -8 -325 0 -67 6 -90 9 -145 21 -14 3 -36 7
-50 10 -69 13 -87 17 -110 25 -14 5 -64 21 -112 35 -49 15 -90 31 -94 36 -3 5
-13 9 -23 9 -17 0 -223 101 -247 121 -8 6 -14 4 -18 -8 -4 -10 -7 -20 -6 -22
1 -2 -2 -7 -7 -10 -4 -3 -57 -103 -116 -221 l-108 -215 25 -20 c25 -20 122
-71 216 -113 85 -39 262 -96 365 -118 54 -12 124 -25 155 -30 19 -2 44 -6 55
-9 120 -24 496 -24 665 0 219 31 425 104 565 199 218 148 345 369 348 606 2
120 -38 327 -65 338 -4 2 -8 12 -8 23 0 10 -4 19 -10 19 -5 0 -10 5 -10 10 0
13 -10 26 -66 86 -23 24 -39 44 -36 44 8 0 -104 72 -158 102 -129 70 -335 134
-550 169 -36 6 -72 11 -80 11 -34 2 -280 44 -312 54 -10 3 -30 7 -45 10 -91
16 -225 72 -277 118 -68 58 -91 176 -51 261 39 80 155 162 256 180 18 3 35 8
39 10 16 10 145 19 260 19 138 0 218 -8 346 -34 138 -27 208 -52 349 -121 l80
-40 22 28 c12 15 25 40 28 55 4 15 11 31 16 34 10 5 24 35 29 59 1 6 6 15 10
20 13 16 140 273 140 283 0 9 -124 73 -170 87 -14 4 -29 11 -35 15 -8 6 -106
38 -140 46 -5 1 -28 6 -50 12 -22 6 -51 13 -65 16 -14 3 -36 7 -50 11 -14 3
-41 7 -60 10 -19 3 -48 8 -65 11 -16 3 -43 7 -60 9 -16 2 -64 6 -105 10 -65 7
-328 13 -333 9z"/>
<path d="M13975 13990 c1 -470 5 -882 9 -915 28 -230 99 -436 191 -556 11 -14
27 -36 35 -49 16 -25 123 -134 159 -163 12 -10 33 -23 47 -29 13 -6 24 -14 24
-18 0 -20 257 -128 345 -146 11 -2 31 -6 45 -9 14 -3 36 -7 50 -10 119 -24
397 -24 510 -1 14 3 39 8 55 12 118 24 283 95 388 166 34 23 92 73 130 110 37
37 68 68 70 68 1 0 1 -76 0 -170 l-1 -170 304 0 c167 0 304 3 305 8 6 54 2
2000 -4 2010 -5 6 -6 12 -1 12 11 0 11 211 0 228 -4 7 -4 12 1 12 10 0 10 211
-1 228 -4 7 -4 12 1 12 12 0 8 211 -4 218 -9 6 -597 8 -625 3 -6 -1 -7 -16 -8
-93 0 -17 0 -116 0 -155 0 -10 1 -65 3 -123 1 -58 -1 -113 -6 -122 -4 -10 -4
-18 0 -18 4 0 8 -29 8 -65 0 -36 -4 -65 -8 -65 -5 0 -5 -5 -1 -11 10 -16 11
-149 1 -149 -4 0 -4 -8 0 -17 10 -22 9 -105 -1 -121 -4 -7 -4 -12 1 -12 10 0
9 -172 -1 -188 -4 -7 -4 -12 1 -12 4 0 8 -36 8 -80 0 -44 -4 -80 -9 -80 -5 0
-4 -6 1 -12 9 -13 9 -35 -2 -168 -7 -89 -9 -109 -18 -135 -3 -11 -8 -31 -11
-45 -19 -106 -132 -300 -209 -360 -10 -8 -31 -24 -45 -36 -60 -47 -190 -104
-272 -118 -14 -3 -25 -5 -25 -6 0 -9 -216 -13 -270 -5 -75 10 -95 14 -139 29
-97 33 -132 55 -215 136 -83 80 -145 225 -167 385 -4 28 -8 403 -9 835 -2 432
-3 792 -4 800 -1 13 -42 15 -319 15 l-318 0 1 -855z"/>
</g>
</svg>
